<?xml version="1.0" standalone="no"?>
<!DOCTYPE svg PUBLIC "-//W3C//DTD SVG 20010904//EN"
 "http://www.w3.org/TR/2001/REC-SVG-20010904/DTD/svg10.dtd">
<svg version="1.0" xmlns="http://www.w3.org/2000/svg"
 width="743.000000pt" height="420.000000pt" viewBox="0 0 743.000000 420.000000"
 preserveAspectRatio="xMidYMid meet">

<g transform="translate(0.000000,420.000000) scale(0.100000,-0.100000)"
fill="#000000" stroke="none">
<path d="M3153 4134 c-69 -34 -123 -120 -123 -194 0 -93 71 -180 164 -201 148
-33 271 61 270 206 -1 90 -44 155 -126 189 -48 21 -144 20 -185 0z"/>
<path d="M5613 4134 c-69 -34 -123 -120 -123 -194 0 -93 71 -180 164 -201 148
-33 271 61 270 206 -1 90 -44 155 -126 189 -48 21 -144 20 -185 0z"/>
<path d="M670 4103 c-87 -13 -176 -40 -250 -75 -71 -34 -100 -56 -175 -132
-57 -57 -103 -114 -122 -151 -105 -200 -107 -478 -7 -683 57 -115 189 -245
304 -300 126 -60 202 -76 355 -76 93 -1 148 4 195 17 95 25 217 89 281 146
l57 51 12 -48 c8 -35 24 -59 59 -93 91 -88 223 -92 313 -11 100 90 106 233 14
325 -63 62 -146 82 -239 56 -48 -13 -115 -72 -137 -122 l-17 -37 -113 105
c-63 58 -121 106 -129 106 -33 3 -47 -3 -72 -31 -15 -16 -51 -41 -80 -56 -46
-24 -65 -28 -134 -28 -93 1 -156 25 -215 84 -63 63 -84 121 -88 234 -4 96 -3
100 33 173 27 56 48 82 83 108 119 88 282 86 385 -5 25 -23 55 -40 69 -40 17
0 56 33 137 114 136 137 140 148 65 214 -71 63 -191 119 -304 142 -86 18 -213
24 -280 13z m960 -1033 c51 -26 82 -72 88 -131 6 -64 -2 -92 -40 -135 -131
-149 -377 -10 -307 173 14 37 57 82 94 99 45 20 120 17 165 -6z"/>
<path d="M4351 3720 c-125 -33 -208 -97 -253 -195 -33 -71 -32 -200 0 -267 45
-92 133 -148 294 -189 48 -12 95 -28 105 -35 17 -13 17 -15 -2 -30 -38 -30
-127 -5 -206 57 -20 16 -46 29 -58 29 -14 0 -55 -34 -116 -97 -110 -115 -116
-134 -57 -183 123 -102 350 -153 524 -117 103 22 162 53 225 119 59 63 83 127
83 218 0 173 -100 276 -320 331 -46 11 -95 26 -109 33 l-25 13 23 13 c35 18
104 4 162 -36 28 -19 61 -34 74 -34 32 0 205 180 205 214 0 54 -133 132 -272
160 -101 21 -186 19 -277 -4z"/>
<path d="M6811 3720 c-125 -33 -208 -97 -253 -195 -33 -71 -32 -200 0 -267 45
-92 133 -148 294 -189 48 -12 95 -28 105 -35 17 -13 17 -15 -2 -30 -38 -30
-127 -5 -206 57 -20 16 -46 29 -58 29 -14 0 -55 -34 -116 -97 -110 -115 -116
-134 -57 -183 123 -102 350 -153 524 -117 103 22 162 53 225 119 59 63 83 127
83 218 0 173 -100 276 -320 331 -46 11 -95 26 -109 33 l-25 13 23 13 c35 18
104 4 162 -36 28 -19 61 -34 74 -34 32 0 205 180 205 214 0 54 -133 132 -272
160 -101 21 -186 19 -277 -4z"/>
<path d="M2355 3713 c-27 -10 -61 -26 -74 -35 -23 -16 -25 -16 -41 5 -17 21
-26 22 -174 22 -136 0 -158 -2 -173 -18 -17 -16 -18 -51 -21 -471 -3 -447 -2
-453 18 -479 l21 -27 163 0 c145 0 165 2 179 18 15 16 17 50 17 271 0 230 2
255 19 290 30 58 63 75 161 81 105 6 105 6 114 181 6 114 4 129 -13 150 -25
31 -124 37 -196 12z"/>
<path d="M3090 3703 c-39 -15 -40 -22 -40 -498 0 -435 1 -463 18 -478 16 -14
44 -17 180 -17 l161 0 21 27 c20 26 21 32 18 479 -3 419 -4 455 -21 471 -15
16 -39 18 -170 20 -84 1 -159 0 -167 -4z"/>
<path d="M5550 3703 c-39 -15 -40 -22 -40 -498 0 -435 1 -463 18 -478 16 -14
44 -17 180 -17 l161 0 21 27 c20 26 21 32 18 479 -3 419 -4 455 -21 471 -15
16 -39 18 -170 20 -84 1 -159 0 -167 -4z"/>
<path d="M2625 3125 c-51 -18 -120 -91 -134 -141 -25 -90 -7 -162 58 -225 91
-88 223 -93 313 -11 100 90 106 233 14 325 -65 65 -159 84 -251 52z m175 -55
c51 -26 82 -72 88 -131 6 -64 -2 -92 -40 -135 -131 -149 -377 -10 -307 173 14
37 57 82 94 99 45 20 120 17 165 -6z"/>
<path d="M3695 3125 c-51 -18 -120 -91 -134 -141 -25 -90 -7 -162 58 -225 91
-88 223 -93 313 -11 100 90 106 233 14 325 -65 65 -159 84 -251 52z m175 -55
c51 -26 82 -72 88 -131 6 -64 -2 -92 -40 -135 -131 -149 -377 -10 -307 173 14
37 57 82 94 99 45 20 120 17 165 -6z"/>
<path d="M5085 3125 c-51 -18 -120 -91 -134 -141 -25 -90 -7 -162 58 -225 91
-88 223 -93 313 -11 100 90 106 233 14 325 -65 65 -159 84 -251 52z m175 -55
c51 -26 82 -72 88 -131 6 -64 -2 -92 -40 -135 -131 -149 -377 -10 -307 173 14
37 57 82 94 99 45 20 120 17 165 -6z"/>
<path d="M6155 3125 c-51 -18 -120 -91 -134 -141 -25 -90 -7 -162 58 -225 91
-88 223 -93 313 -11 100 90 106 233 14 325 -65 65 -159 84 -251 52z m175 -55
c51 -26 82 -72 88 -131 6 -64 -2 -92 -40 -135 -131 -149 -377 -10 -307 173 14
37 57 82 94 99 45 20 120 17 165 -6z"/>
<path d="M4130 2374 c-237 -52 -375 -221 -357 -437 8 -92 52 -183 110 -230 68
-54 105 -73 247 -122 74 -26 147 -53 162 -61 61 -32 86 -104 52 -152 -58 -84
-246 -69 -357 28 -25 22 -51 40 -58 40 -17 0 -219 -200 -219 -216 0 -22 93
-95 165 -129 193 -92 426 -99 599 -17 91 43 149 100 193 190 37 74 38 79 38
186 0 97 -3 117 -24 159 -53 107 -152 172 -374 247 -143 48 -187 78 -187 127
0 122 217 144 342 34 20 -17 40 -31 46 -31 17 0 213 213 210 229 -2 8 -31 34
-65 57 -144 99 -346 136 -523 98z"/>
<path d="M1305 2348 c-3 -7 -4 -301 -3 -653 l3 -640 460 0 460 0 0 145 0 145
-292 3 -293 2 0 115 0 115 253 0 c183 0 256 3 265 12 17 17 17 249 0 266 -9 9
-82 12 -265 12 l-253 0 0 95 0 95 278 2 277 3 3 134 c2 90 -1 138 -9 147 -16
20 -877 21 -884 2z m875 -138 l0 -130 -280 0 -280 0 0 -115 0 -115 265 0 265
0 0 -125 0 -125 -265 0 -265 0 0 -135 0 -135 295 0 295 0 0 -130 0 -130 -445
0 -445 0 0 635 0 635 430 0 430 0 0 -130z"/>
<path d="M2395 2348 c-3 -7 -4 -301 -3 -653 l3 -640 165 0 165 0 -2 390 c-1
269 1 385 8 375 6 -8 115 -184 243 -390 l232 -375 190 0 189 0 0 650 0 650
-165 0 -165 0 3 -389 c1 -215 1 -388 -2 -385 -2 2 -104 166 -226 364 -123 198
-231 372 -242 388 l-19 27 -185 0 c-138 0 -186 -3 -189 -12z m620 -414 c137
-223 253 -408 257 -410 3 -2 4 180 1 406 l-6 410 151 0 152 0 0 -635 0 -635
-177 2 -177 3 -248 400 c-137 220 -253 407 -258 415 -5 9 -6 -155 -3 -403 l6
-417 -151 0 -152 0 0 635 0 635 178 0 177 -1 250 -405z"/>
<path d="M5239 2313 c-207 -481 -519 -1238 -515 -1249 7 -19 351 -21 363 -1 4
6 27 62 49 122 l42 110 233 3 234 2 44 -112 c24 -62 48 -119 54 -125 12 -17
362 -19 372 -2 6 9 -506 1258 -528 1287 -7 9 -53 12 -169 12 l-159 0 -20 -47z
m241 -544 c33 -91 60 -169 60 -172 0 -4 -56 -7 -125 -7 -69 0 -125 3 -125 8 0
10 124 342 127 339 1 -2 29 -77 63 -168z"/>
<path d="M6072 994 c-98 -26 -152 -66 -188 -140 -45 -93 -31 -209 34 -277 34
-36 85 -63 191 -98 46 -16 93 -36 103 -45 26 -24 22 -59 -8 -83 -46 -36 -127
-23 -196 30 -20 16 -43 29 -50 29 -19 0 -138 -122 -138 -142 0 -9 14 -28 31
-43 109 -91 298 -119 441 -65 173 64 229 301 101 422 -31 30 -127 76 -215 103
-68 21 -93 44 -84 78 14 57 118 60 194 7 l45 -32 69 71 c39 40 68 78 66 87 -5
24 -105 81 -173 99 -73 18 -153 18 -223 -1z m229 -20 c52 -15 149 -69 149 -83
0 -4 -28 -35 -63 -69 -58 -58 -65 -62 -78 -46 -19 23 -88 54 -122 54 -75 0
-132 -54 -109 -106 12 -26 25 -32 154 -78 156 -56 213 -119 212 -236 0 -108
-57 -191 -160 -235 -59 -26 -186 -31 -264 -11 -67 17 -168 71 -178 94 -3 8 21
40 55 74 l61 61 35 -27 c81 -62 196 -71 237 -19 49 63 14 107 -122 152 -52 17
-113 43 -134 57 -127 82 -135 265 -17 363 77 64 230 88 344 55z"/>
<path d="M155 978 c-3 -7 -4 -195 -3 -418 l3 -405 105 0 105 0 5 227 5 228 74
-208 c40 -114 80 -217 88 -229 12 -21 22 -23 87 -23 47 0 77 5 83 12 5 7 45
110 89 228 l79 215 5 -225 5 -225 110 0 110 0 0 415 0 415 -149 3 c-82 1 -153
-1 -158 -6 -5 -5 -45 -112 -88 -238 -52 -152 -81 -223 -85 -212 -4 10 -42 116
-85 235 l-78 218 -151 3 c-116 2 -153 0 -156 -10z"/>
<path d="M1473 978 c-4 -7 -83 -191 -174 -408 -121 -285 -164 -398 -157 -408
15 -17 222 -17 236 1 5 6 21 42 33 80 l24 67 142 0 142 0 29 -77 30 -78 121
-3 c92 -2 123 0 126 10 3 8 -71 196 -163 418 l-169 405 -106 3 c-77 2 -108 -1
-114 -10z m146 -385 l30 -83 -71 0 c-38 0 -68 4 -66 8 2 4 16 45 33 90 16 45
33 78 37 74 3 -4 20 -44 37 -89z"/>
<path d="M2065 978 c-3 -7 -4 -195 -3 -418 l3 -405 110 0 110 0 3 158 c3 209
8 209 126 -3 l88 -161 122 3 c98 2 121 6 124 18 1 8 -38 84 -88 169 -49 84
-90 156 -90 160 0 3 20 18 44 32 83 51 122 160 96 270 -10 41 -24 64 -59 99
-75 75 -109 83 -363 88 -176 3 -219 1 -223 -10z m400 -213 c31 -30 31 -47 1
-82 -21 -25 -31 -28 -100 -31 l-76 -4 0 71 0 71 75 0 c67 0 79 -3 100 -25z"/>
<path d="M2815 978 c-3 -7 -4 -195 -3 -418 l3 -405 110 0 110 0 3 158 c3 209
9 209 126 -3 l88 -160 223 0 c166 0 225 3 233 13 5 6 21 42 33 79 l24 68 142
0 142 0 29 -77 30 -78 121 -3 c92 -2 123 0 126 10 3 8 -71 196 -163 418 l-169
405 -105 3 c-76 2 -108 -1 -115 -10 -5 -7 -79 -178 -164 -380 -84 -203 -156
-368 -159 -368 -7 0 -160 258 -160 268 0 4 20 19 44 33 83 51 122 160 96 270
-10 41 -24 64 -59 99 -75 75 -109 83 -363 88 -176 3 -219 1 -223 -10z m1361
-408 c90 -217 164 -396 164 -397 0 -2 -49 -3 -108 -3 l-109 0 -30 78 -30 77
-156 3 -155 2 -28 -80 -27 -80 -108 0 -108 0 37 88 c20 49 96 229 167 400
l130 312 98 -2 98 -3 165 -395z m-961 195 c31 -30 31 -47 1 -82 -21 -25 -31
-28 -100 -31 l-76 -4 0 71 0 71 75 0 c67 0 79 -3 100 -25z"/>
<path d="M3859 618 l-46 -123 90 -3 c49 -1 92 -1 94 2 6 6 -79 246 -87 246 -3
0 -26 -55 -51 -122z m90 -25 l30 -83 -71 0 c-38 0 -68 4 -66 8 2 4 16 45 33
90 16 45 33 78 37 74 3 -4 20 -44 37 -89z"/>
<path d="M4395 978 c-3 -7 -4 -195 -3 -418 l3 -405 110 0 110 0 5 161 5 160
130 -160 131 -161 139 0 c123 0 140 2 140 16 0 10 -76 107 -170 218 -93 110
-170 205 -170 211 0 6 72 88 160 182 88 94 160 178 160 187 0 14 -19 16 -132
19 l-132 3 -128 -145 -128 -145 -5 142 -5 142 -108 3 c-80 2 -109 -1 -112 -10z
m207 -169 l3 -161 140 161 140 160 123 1 124 0 -54 -59 c-29 -32 -106 -115
-171 -184 l-118 -126 168 -198 c92 -109 174 -206 182 -216 13 -16 6 -17 -115
-16 l-129 0 -145 181 -145 180 -3 -181 -2 -181 -95 0 -95 0 0 400 0 400 95 0
95 0 2 -161z"/>
<path d="M5195 978 c-3 -7 -4 -195 -3 -418 l3 -405 295 0 295 0 3 94 c2 69 -1
97 -10 103 -7 4 -91 8 -185 8 l-173 0 0 60 0 60 163 2 162 3 3 89 c2 65 -1 92
-10 98 -7 4 -82 8 -165 8 l-153 0 0 55 0 55 175 0 176 0 -3 98 -3 97 -283 3
c-221 2 -284 0 -287 -10z m555 -88 l0 -80 -175 0 -175 0 0 -75 0 -75 165 0
165 0 0 -80 0 -80 -165 0 -165 0 0 -80 0 -80 185 0 185 0 0 -85 0 -85 -280 0
-280 0 0 400 0 400 270 0 270 0 0 -80z"/>
<path d="M6555 977 c-3 -6 -4 -194 -3 -417 l3 -405 104 -3 c67 -2 108 1 117 9
11 9 14 47 14 170 l0 159 135 0 135 0 2 -167 3 -168 104 -3 c67 -2 108 1 117
9 12 9 14 81 14 409 0 328 -2 400 -14 409 -9 8 -50 11 -117 9 l-104 -3 -3
-147 -3 -148 -134 0 -135 0 0 138 c0 94 -4 142 -12 150 -17 17 -217 17 -223
-1z m215 -157 l0 -150 155 0 155 0 0 150 0 150 100 0 100 0 0 -400 0 -400
-100 0 -100 0 0 170 0 170 -155 0 -155 0 0 -170 0 -170 -100 0 -100 0 0 400 0
400 100 0 100 0 0 -150z"/>
</g>
</svg>
